<svg width="1195" height="510" viewBox="0 0 1195 510" fill="none" xmlns="http://www.w3.org/2000/svg">
<path d="M690.877 67.5204C634.962 67.5204 580.027 43.2995 526.015 31.0529C445.1 12.7065 360.356 2.64818 277.373 1.59847C252.377 1.28228 226.419 -0.219815 201.582 3.21685C173.039 7.16622 145.765 18.4832 120.177 31.2687C84.0537 49.318 53.8212 81.0084 29.7023 113.051C1.87078 150.025 -3.43688 198.86 4.11468 244.139C14.733 307.806 81.4738 343.281 134.212 366.704C179.286 386.724 224.326 405.363 272.406 417.09C344.189 434.598 418.311 444.764 492.006 449.673C711.253 464.28 935.549 453.457 1143.9 378.249C1153.11 374.924 1196.53 361.483 1193.88 344.263C1193.13 339.361 1184.1 335.438 1180.39 333.582C1169.08 327.931 1158.1 322.455 1147.24 315.887C1113.85 295.687 1088.7 268.112 1057.42 245.326C1033.12 227.632 1010.53 208.002 988.211 187.928C925.058 131.128 838.639 126.701 760.838 103.988C730.566 95.1502 697.769 83.4859 666.477 79.1727C652.352 77.2258 638.841 73.9239 624.587 72.3755C602.324 69.9573 580.597 69.4624 558.189 69.4624C504.737 69.4624 451.713 72.3445 400.236 87.3725C379.449 93.441 358.665 99.6391 337.617 104.851C318.838 109.501 300.132 119.969 280.828 121.898C276.333 122.347 278.884 156.527 278.884 159.876C278.884 179.814 278.339 199.829 278.992 219.756C279.713 241.727 288.658 261.013 297.454 280.715C308.735 305.981 317.562 332.329 336.106 353.434C351.308 370.736 366.787 387.373 386.201 400.043C405.748 412.8 426.245 426.169 449.144 431.763C468.483 436.487 487.773 440.982 507.229 445.25C565.556 458.045 623.406 471.847 682.24 482.688C710.625 487.919 739.082 493.425 767.532 498.225C790.667 502.128 814.446 508.366 837.925 508.366C857.905 508.366 881.113 511.671 899.788 503.188C920.824 493.632 938.055 476.224 951.395 457.765C977.226 422.023 962.697 377.118 939.843 342.86C909.848 297.899 870.304 257.653 829.719 222.237C812.177 206.929 792.548 191.923 771.634 181.67C734.123 163.28 699.042 156.904 656.976 154.05C633.267 152.441 607.062 148.473 583.344 152.215C576.095 153.359 567.67 155.703 563.803 162.573C561.434 166.781 562.615 173.096 562.615 177.57C562.615 191.196 562.113 203.409 558.62 216.735C556.397 225.22 546.091 255.535 565.422 255.9C588.885 256.342 615.251 252.053 637.974 259.352C645.105 261.642 651.935 264.225 659.675 264.423C674.099 264.793 681.208 258.03 691.741 252.015C701.72 246.317 684.164 240.363 680.188 240.363C670.814 240.363 689.419 236.479 692.82 236.479C702.712 236.479 703.677 241.39 712.254 244.247" stroke="black" stroke-linecap="round"/>
</svg>
